PathFileType	4	(X/Y/Z)	C:\human.trc
DataRate	CameraRate	NumFrames	NumMarkers	Units	OrigDataRate	OrigDataStartFrame	OrigNumFrames
200.00	200.00	      4	35	mm	200.00	299	      2387
Frame#	Time	HEADF			HEADR			HEADL			RSHO			RELBL			RELBM			RWRISTR			RWRISTU			RMP			LSHO			LELBL			LELBM			LWRISTR			LWRISTU			LMP			RPEL			RHIP			RKNEEO			RANK			RHEEL			RPINKY			RTHUMB			LPEL			LHIP			LKNEEO			LANK			LHEEL			LPINKY			LTHUMB			T1			T7			L5			STERNUP			STERNLOW			SCAP			
		X1	Y1	Z1	X2	Y2	Z2	X3	Y3	Z3	X4	Y4	Z4	X5	Y5	Z5	X6	Y6	Z6	X7	Y7	Z7	X8	Y8	Z8	X9	Y9	Z9	X10	Y10	Z10	X11	Y11	Z11	X12	Y12	Z12	X13	Y13	Z13	X14	Y14	Z14	X15	Y15	Z15	X16	Y16	Z16	X17	Y17	Z17	X18	Y18	Z18	X19	Y19	Z19	X20	Y20	Z20	X21	Y21	Z21	X22	Y22	Z22	X23	Y23	Z23	X24	Y24	Z24	X25	Y25	Z25	X26	Y26	Z26	X27	Y27	Z27	X28	Y28	Z28	X29	Y29	Z29	X30	Y30	Z30	X31	Y31	Z31	X32	Y32	Z32	X33	Y33	Z33	X34	Y34	Z34	X35	Y35	Z35	

299	1.490	60.88335	642.69476	1491.32971	-21.46287	747.99316	1500.04309	138.03758	665.70996	1501.37830	-61.57385	844.83606	1351.71436	-324.54636	868.45447	1227.15540	-300.77094	856.77954	1167.84436	-527.82953	797.52142	1148.41187	-529.12726	862.37518	1135.03589	-602.67743	840.85101	1162.67505	210.07254	856.41614	1347.19690	466.01291	881.39069	1241.96033	437.27136	884.92352	1163.12195	660.52081	859.91675	1127.16821	659.16583	923.13550	1145.91089	747.29211	902.21436	1149.53357	-57.74489	761.99902	877.76233	-108.51050	827.30426	850.56958	-123.76013	847.64392	434.21570	-132.76479	926.07513	71.57142	-88.91121	959.93628	62.69434	-198.64595	842.02734	39.56246	-137.65610	768.65289	47.12681	177.40579	764.90582	878.34509	225.80751	846.99640	825.74359	218.23941	859.17255	445.65799	197.87497	933.19537	84.86900	148.63000	979.04022	52.24235	239.08691	838.04388	43.26270	160.70377	787.27368	45.75174	71.57725	869.45380	1374.07922	70.33679	931.38397	1197.92786	59.12971	924.24341	944.10101	76.20199	755.51367	1271.69812	69.55407	726.36774	1143.51440	-35.90760	930.98651	1196.56079	
300	1.495	61.33743	642.30255	1491.06982	-21.05474	747.56860	1500.00037	138.57040	665.02972	1501.07129	-61.55418	844.38440	1351.41113	-323.28204	868.36517	1223.13647	-298.52298	857.71967	1163.72095	-524.91010	796.83917	1140.65857	-526.44873	861.80286	1128.15845	-600.26135	839.88129	1154.49646	210.71759	856.07996	1346.82349	466.58264	881.20013	1238.69250				658.91101	859.60309	1120.62671	657.93292	922.54004	1139.37988	745.72620	900.89191	1141.57397	-57.46897	762.13293	877.78693	-108.18421	827.43707	850.58545	-123.62073	847.69507	434.26044	-132.75317	926.08844	71.62811	-88.90130	959.94055	62.69527	-198.64340	842.03674	39.56653	-137.66354	768.65405	47.12961	177.62625	764.78516	878.40564	226.03667	846.87457	825.73389	218.40172	858.96362	445.60083	198.11995	933.17249	84.57774	146.73697	978.63269	50.61291	239.14021	838.14966	43.28581	160.72235	787.37744	45.69682	72.17886	869.16290	1374.10132	70.56900	931.30212	1197.83911	59.33361	924.12360	944.00006	76.77035	755.35675	1271.44165	70.36651	726.31177	1142.99609	-35.24609	931.04041	1196.96802	
301	1.500	61.76116	641.88458	1490.65552	-20.47422	747.08990	1499.82043	139.07336	664.59357	1500.59558	-61.73747	843.65924	1350.99207	-322.09204	868.34998	1219.17090	-295.59937	858.96399	1160.56689	-521.85767	796.28839	1132.85083	-523.74780	861.30328	1120.99377	-597.88293	838.37903	1145.62488	211.49213	855.86255	1346.40674	466.22821	880.65985	1234.82849				656.75055	858.74902	1113.24060	656.50427	921.93225	1132.93677	744.24957	900.02155	1133.44446	-57.25360	762.22400	877.81287	-107.90258	827.63354	850.60999	-123.40175	847.84814	434.23807	-132.74449	925.72064	71.74348	-88.71935	960.10205	62.73642	-198.63470	842.04541	39.56683	-137.65721	768.65338	47.16090	177.86238	764.63458	878.39526	226.38927	846.74719	825.71979	218.54878	858.73157	445.56357	198.08994	932.84595	84.60610	148.65083	979.06305	52.24601	239.05782	837.95563	43.27112	160.72173	787.38220	45.69672	72.53543	868.89520	1373.93750	71.72247	931.48590	1198.07349	59.52461	924.03998	943.95294	77.29369	755.27576	1271.21191	70.55891	726.08936	1142.74976	-33.59711	931.66821	1197.71924	
302	1.505	62.28932	641.22528	1490.04309	-20.02257	746.74768	1499.66272	139.49950	664.02509	1500.28271	-61.73234	843.02319	1350.43042	-320.60294	868.24982	1215.03650	-293.39063	859.31989	1156.18164	-518.45770	795.78717	1124.94849	-520.71674	860.89514	1113.84851	-595.45642	837.15851	1136.64478	212.08250	855.70923	1346.10034	465.91934	880.21375	1230.75867	434.91782	887.26733	1154.92664	654.61145	858.15680	1106.22559	654.85211	921.04980	1126.27771	742.70837	898.52161	1125.33765	-56.94491	762.29938	877.77734	-107.58021	827.73132	850.60211	-123.25416	847.95605	434.27551	-132.68761	925.74542	71.75977	-88.70309	960.10229	62.73494	-198.63345	842.03558	39.55947	-137.66748	768.65393	47.11970	178.15819	764.42999	878.34979	226.74817	846.60651	825.66498	218.70988	858.60608	445.54437	198.08569	932.71252	84.68235	148.64088	979.06177	52.24483	239.05952	837.95813	43.26413	160.69493	787.28650	45.74613	73.14943	868.76312	1374.02148	73.10659	931.72845	1198.09900	59.68578	923.97217	943.92224	77.86023	755.14563	1271.18579	70.85716	726.06537	1142.78455	-33.03925	931.84314	1198.11316	
